<svg width="15" height="15" viewBox="0 0 15 15" fill="none" xmlns="http://www.w3.org/2000/svg">
<path fill-rule="evenodd" clip-rule="evenodd" d="M7.36396 5.94977L1.70712 0.292896C1.31659 -0.097632 0.68344 -0.097632 0.292896 0.292896C-0.097632 0.683376 -0.097632 1.31662 0.292896 1.70717L5.94973 7.36401L0.292896 13.0209C-0.097632 13.4114 -0.097632 14.0445 0.292896 14.4351C0.68344 14.8256 1.31659 14.8256 1.70712 14.4351L7.36396 8.77825L13.0208 14.4351C13.4113 14.8256 14.0445 14.8256 14.435 14.4351C14.8256 14.0445 14.8256 13.4114 14.435 13.0209L8.7782 7.36401L14.435 1.70717C14.8256 1.31662 14.8256 0.683376 14.435 0.292896C14.0445 -0.097632 13.4113 -0.097632 13.0208 0.292896L7.36396 5.94977Z" fill="#EAECEF"/>
</svg>
